# xmcd
#
# Track frame offsets:
#	150
#	22903
#	41231
#	63062
#	83488
#	99092
#	123520
#	139465
#	160359
#	176392
#	188967
#
# Disc length: 2723 seconds
#
# Revision: 10
# Processed by: cddbd v1.5.1PL2 Copyright (c) Steve Scherf et al.
# Submitted via: audiograbber 1.83.01
#
DISCID=870aa10b
DTITLE=Kenny Chesney - When The Sun Goes Down
DYEAR=2003
DGENRE=Country
TTITLE0=There Goes My Life - Kenny Chesney
TTITLE1=I Go Back - Kenny Chesney
TTITLE2=When The Sun Goes Down - Kenny Chesney (Duet with Uncle Kracker)
TTITLE3=The Woman With You - Kenny Chesney
TTITLE4=Some People Change - Kenny Chesney
TTITLE5=Anything But Mine - Kenny Chesney
TTITLE6=Keg In The Closet - Kenny Chesney
TTITLE7=When I Think About Leaving - Kenny Chesney
TTITLE8=Being Drunk's A Lot Like Loving You - Kenny Chesney
TTITLE9=Outta Here - Kenny Chesney
TTITLE10=Old Blue Chair - Kenny Chesney
EXTD=
EXTT0=
EXTT1=
EXTT2=
EXTT3=
EXTT4=
EXTT5=
EXTT6=
EXTT7=
EXTT8=
EXTT9=
EXTT10=
PLAYORDER=
